<svg xmlns="http://www.w3.org/2000/svg" width="130.5" height="145" viewBox="0 0 130.5 145">
  <path id="calendar_month_FILL0_wght400_GRAD0_opsz48" d="M130.875-735a10.433,10.433,0,0,1-7.612-3.263A10.433,10.433,0,0,1,120-745.875V-858.25a10.433,10.433,0,0,1,3.263-7.612,10.433,10.433,0,0,1,7.612-3.263h11.781V-880h11.781v10.875h61.625V-880h11.781v10.875h11.781a10.433,10.433,0,0,1,7.612,3.263,10.433,10.433,0,0,1,3.263,7.612v112.375a10.433,10.433,0,0,1-3.263,7.612A10.433,10.433,0,0,1,239.625-735Zm0-10.875h108.75v-77.937H130.875Zm0-88.812h108.75V-858.25H130.875Zm0,0v0ZM185.25-793a7.015,7.015,0,0,1-5.166-2.084A7.015,7.015,0,0,1,178-800.25a7.015,7.015,0,0,1,2.084-5.166,7.015,7.015,0,0,1,5.166-2.084,7.015,7.015,0,0,1,5.166,2.084,7.015,7.015,0,0,1,2.084,5.166,7.015,7.015,0,0,1-2.084,5.166A7.015,7.015,0,0,1,185.25-793Zm-29,0a7.015,7.015,0,0,1-5.166-2.084A7.015,7.015,0,0,1,149-800.25a7.015,7.015,0,0,1,2.084-5.166,7.015,7.015,0,0,1,5.166-2.084,7.015,7.015,0,0,1,5.166,2.084,7.015,7.015,0,0,1,2.084,5.166,7.015,7.015,0,0,1-2.084,5.166A7.015,7.015,0,0,1,156.25-793Zm58,0a7.015,7.015,0,0,1-5.166-2.084A7.015,7.015,0,0,1,207-800.25a7.015,7.015,0,0,1,2.084-5.166,7.015,7.015,0,0,1,5.166-2.084,7.015,7.015,0,0,1,5.166,2.084,7.015,7.015,0,0,1,2.084,5.166,7.015,7.015,0,0,1-2.084,5.166A7.015,7.015,0,0,1,214.25-793Zm-29,29a7.015,7.015,0,0,1-5.166-2.084A7.015,7.015,0,0,1,178-771.25a7.015,7.015,0,0,1,2.084-5.166,7.015,7.015,0,0,1,5.166-2.084,7.015,7.015,0,0,1,5.166,2.084,7.015,7.015,0,0,1,2.084,5.166,7.015,7.015,0,0,1-2.084,5.166A7.015,7.015,0,0,1,185.25-764Zm-29,0a7.015,7.015,0,0,1-5.166-2.084A7.015,7.015,0,0,1,149-771.25a7.015,7.015,0,0,1,2.084-5.166,7.015,7.015,0,0,1,5.166-2.084,7.015,7.015,0,0,1,5.166,2.084,7.015,7.015,0,0,1,2.084,5.166,7.015,7.015,0,0,1-2.084,5.166A7.015,7.015,0,0,1,156.25-764Zm58,0a7.015,7.015,0,0,1-5.166-2.084A7.015,7.015,0,0,1,207-771.25a7.015,7.015,0,0,1,2.084-5.166,7.015,7.015,0,0,1,5.166-2.084,7.015,7.015,0,0,1,5.166,2.084,7.015,7.015,0,0,1,2.084,5.166,7.015,7.015,0,0,1-2.084,5.166A7.015,7.015,0,0,1,214.25-764Z" transform="translate(-120 880)"/>
</svg>
