<?xml version="1.0" encoding="utf-8"?>
<!-- Generator: Adobe Illustrator 16.0.0, SVG Export Plug-In . SVG Version: 6.00 Build 0)  -->
<!DOCTYPE svg PUBLIC "-//W3C//DTD SVG 1.1//EN" "http://www.w3.org/Graphics/SVG/1.1/DTD/svg11.dtd">
<svg version="1.1" id="Calque_1" xmlns="http://www.w3.org/2000/svg" xmlns:xlink="http://www.w3.org/1999/xlink" x="0px" y="0px"
	 width="16px" height="17.778px" viewBox="12.25 8.111 16 17.778" enable-background="new 12.25 8.111 16 17.778"
	 xml:space="preserve">
<path id="calendar_month_FILL0_wght400_GRAD0_opsz48" d="M13.583,25.889c-0.353,0.001-0.691-0.144-0.934-0.4
	c-0.256-0.242-0.401-0.58-0.4-0.933V10.778c-0.001-0.353,0.144-0.691,0.4-0.934c0.243-0.256,0.581-0.401,0.934-0.4h1.444V8.111
	h1.444v1.333h7.556V8.111h1.444v1.333h1.444c0.353-0.001,0.691,0.144,0.934,0.4c0.256,0.243,0.401,0.581,0.4,0.934v13.778
	c0.001,0.353-0.144,0.691-0.4,0.933c-0.243,0.257-0.58,0.401-0.933,0.4H13.583z M13.583,24.556h13.333V15H13.583V24.556z
	 M13.583,13.667h13.333v-2.889H13.583V13.667z M13.583,13.667L13.583,13.667z M20.25,18.778c-0.237,0.005-0.467-0.087-0.633-0.256
	c-0.169-0.167-0.261-0.396-0.255-0.633c-0.006-0.237,0.086-0.467,0.255-0.634c0.167-0.168,0.396-0.261,0.633-0.255
	c0.237-0.006,0.467,0.087,0.633,0.255c0.169,0.167,0.262,0.396,0.256,0.634c0.006,0.237-0.087,0.467-0.256,0.633
	C20.717,18.691,20.487,18.784,20.25,18.778z M16.695,18.778c-0.238,0.005-0.467-0.087-0.634-0.256
	c-0.169-0.167-0.261-0.396-0.255-0.633c-0.006-0.237,0.086-0.467,0.255-0.634c0.167-0.168,0.396-0.261,0.634-0.255
	c0.237-0.006,0.466,0.087,0.633,0.255c0.169,0.167,0.261,0.396,0.255,0.634c0.006,0.237-0.086,0.467-0.255,0.633
	C17.161,18.691,16.932,18.784,16.695,18.778z M23.806,18.778c-0.237,0.005-0.467-0.087-0.633-0.256
	c-0.169-0.167-0.262-0.396-0.256-0.633c-0.006-0.237,0.087-0.467,0.256-0.634c0.167-0.168,0.396-0.261,0.633-0.255
	c0.237-0.006,0.467,0.087,0.633,0.255c0.169,0.167,0.262,0.396,0.256,0.634c0.006,0.237-0.087,0.467-0.256,0.633
	C24.272,18.691,24.043,18.784,23.806,18.778z M20.25,22.333c-0.237,0.006-0.467-0.086-0.633-0.255
	c-0.169-0.167-0.261-0.396-0.255-0.634c-0.006-0.237,0.086-0.466,0.255-0.633c0.167-0.169,0.396-0.261,0.633-0.255
	c0.237-0.006,0.467,0.086,0.633,0.255c0.169,0.167,0.262,0.396,0.256,0.633c0.006,0.238-0.087,0.467-0.256,0.634
	C20.717,22.247,20.487,22.339,20.25,22.333z M16.695,22.333c-0.238,0.006-0.467-0.086-0.634-0.255
	c-0.169-0.167-0.261-0.396-0.255-0.634c-0.006-0.237,0.086-0.466,0.255-0.633c0.167-0.169,0.396-0.261,0.634-0.255
	c0.237-0.006,0.466,0.086,0.633,0.255c0.169,0.167,0.261,0.396,0.255,0.633c0.006,0.238-0.086,0.467-0.255,0.634
	C17.161,22.247,16.932,22.339,16.695,22.333z M23.806,22.333c-0.237,0.006-0.467-0.086-0.633-0.255
	c-0.169-0.167-0.262-0.396-0.256-0.634c-0.006-0.237,0.087-0.466,0.256-0.633c0.167-0.169,0.396-0.261,0.633-0.255
	c0.237-0.006,0.467,0.086,0.633,0.255c0.169,0.167,0.262,0.396,0.256,0.633c0.006,0.238-0.087,0.467-0.256,0.634
	C24.272,22.247,24.043,22.339,23.806,22.333z"/>
</svg>
