<svg xmlns="http://www.w3.org/2000/svg" width="36" height="36" viewBox="0 0 36 36">
  <path id="update_FILL0_wght400_GRAD0_opsz48" d="M138.15-804a17.591,17.591,0,0,1-7.05-1.425,18.612,18.612,0,0,1-5.775-3.875,18.1,18.1,0,0,1-3.9-5.75A17.591,17.591,0,0,1,120-822.1a17.238,17.238,0,0,1,1.425-7,17.957,17.957,0,0,1,3.9-5.675A18.474,18.474,0,0,1,131.1-838.6a17.862,17.862,0,0,1,7.05-1.4,17.008,17.008,0,0,1,7.575,1.75,19.028,19.028,0,0,1,6.175,4.8v-5.3h3v10.4H144.45v-3h5.25a17.386,17.386,0,0,0-5.175-4.1A13.6,13.6,0,0,0,138.15-837a14.893,14.893,0,0,0-10.7,4.275A13.964,13.964,0,0,0,123-822.25a14.79,14.79,0,0,0,4.4,10.8A14.541,14.541,0,0,0,138.15-807a14.179,14.179,0,0,0,10.55-4.4,14.678,14.678,0,0,0,4.3-10.65h3a17.527,17.527,0,0,1-5.2,12.775A17.1,17.1,0,0,1,138.15-804Zm6.1-9.85-7.7-7.6v-10.7h3v9.45l6.85,6.7Z" transform="translate(-120 840)" fill="#373737"/>
</svg>
