<svg width="60" height="53" viewBox="0 0 60 53" fill="none" xmlns="http://www.w3.org/2000/svg">
<path d="M26.8525 1.81583L0.485489 47.4848C0.167312 48.0363 -0.000129196 48.6619 7.47942e-08 49.2986C0.000129345 49.9353 0.16782 50.5607 0.486221 51.1121C0.804622 51.6635 1.26252 52.1214 1.81392 52.4397C2.36531 52.7581 2.99078 52.9258 3.62749 52.9258H56.3615C56.9982 52.9259 57.6238 52.7583 58.1752 52.4399C58.7266 52.1215 59.1845 51.6636 59.5029 51.1122C59.8212 50.5607 59.9888 49.9352 59.9887 49.2985C59.9886 48.6617 59.8209 48.0362 59.5025 47.4848L33.1385 1.81583C32.8202 1.26381 32.3621 0.805352 31.8104 0.486588C31.2587 0.167823 30.6327 0 29.9955 0C29.3583 0 28.7323 0.167823 28.1806 0.486588C27.6288 0.805352 27.1708 1.26381 26.8525 1.81583Z" fill="#EB0000"/>
<path d="M28.3338 37.4142C28.2393 37.4151 28.1455 37.3972 28.058 37.3614C27.9705 37.3257 27.8911 37.2728 27.8243 37.2059C27.7575 37.139 27.7048 37.0595 27.6691 36.972C27.6335 36.8845 27.6157 36.7907 27.6167 36.6962V10.1702C27.6157 10.0757 27.6335 9.98192 27.6691 9.89439C27.7048 9.80686 27.7575 9.72733 27.8243 9.66046C27.8911 9.59358 27.9705 9.54071 28.058 9.50495C28.1455 9.46918 28.2393 9.45125 28.3338 9.45218H31.6548C31.7493 9.45138 31.843 9.46941 31.9305 9.50521C32.0179 9.54101 32.0974 9.59387 32.1642 9.6607C32.2311 9.72753 32.2839 9.807 32.3197 9.89447C32.3555 9.98195 32.3736 10.0757 32.3728 10.1702V36.6962C32.3736 36.7907 32.3555 36.8844 32.3197 36.9719C32.2839 37.0594 32.2311 37.1388 32.1642 37.2057C32.0974 37.2725 32.0179 37.3254 31.9305 37.3612C31.843 37.397 31.7493 37.415 31.6548 37.4142H28.3338ZM28.3338 45.9422C28.2393 45.9431 28.1455 45.9252 28.058 45.8894C27.9705 45.8537 27.8911 45.8008 27.8243 45.7339C27.7575 45.667 27.7048 45.5875 27.6691 45.5C27.6335 45.4125 27.6157 45.3187 27.6167 45.2242V41.7532C27.6158 41.6588 27.6337 41.5651 27.6694 41.4777C27.7051 41.3903 27.7579 41.3109 27.8247 41.2441C27.8914 41.1773 27.9708 41.1246 28.0583 41.0889C28.1457 41.0532 28.2393 41.0352 28.3338 41.0362H31.6548C31.7492 41.0354 31.8428 41.0534 31.9302 41.0891C32.0176 41.1249 32.0971 41.1776 32.1639 41.2444C32.2307 41.3111 32.2836 41.3904 32.3194 41.4778C32.3553 41.5651 32.3734 41.6588 32.3728 41.7532V45.2242C32.3736 45.3187 32.3555 45.4124 32.3197 45.4999C32.2839 45.5874 32.2311 45.6668 32.1642 45.7337C32.0974 45.8005 32.0179 45.8534 31.9305 45.8892C31.843 45.925 31.7493 45.943 31.6548 45.9422H28.3338Z" fill="white"/>
</svg>
