<svg xmlns="http://www.w3.org/2000/svg" width="36" height="36" viewBox="0 0 36 36">
  <path id="history_FILL0_wght400_GRAD0_opsz48" d="M137.85-804a17.1,17.1,0,0,1-12.65-5.275A17.527,17.527,0,0,1,120-822.05h3a14.678,14.678,0,0,0,4.3,10.65,14.179,14.179,0,0,0,10.55,4.4,14.541,14.541,0,0,0,10.75-4.45,14.79,14.79,0,0,0,4.4-10.8,13.964,13.964,0,0,0-4.45-10.475A14.893,14.893,0,0,0,137.85-837a13.6,13.6,0,0,0-6.375,1.55,17.386,17.386,0,0,0-5.175,4.1h5.25v3H121.1v-10.4h3v5.3a19.028,19.028,0,0,1,6.175-4.8A17.008,17.008,0,0,1,137.85-840a17.862,17.862,0,0,1,7.05,1.4,18.474,18.474,0,0,1,5.775,3.825,17.957,17.957,0,0,1,3.9,5.675,17.238,17.238,0,0,1,1.425,7,17.592,17.592,0,0,1-1.425,7.05,18.1,18.1,0,0,1-3.9,5.75,18.612,18.612,0,0,1-5.775,3.875A17.591,17.591,0,0,1,137.85-804Zm6.4-9.85-7.7-7.6v-10.7h3v9.45l6.85,6.7Z" transform="translate(-120 840)" fill="#373737"/>
</svg>
