<svg width="37" height="31" viewBox="0 0 37 31" fill="none" xmlns="http://www.w3.org/2000/svg">
<path d="M18.2484 31C13.1709 31 8.86012 29.4859 5.31607 26.4576C1.77202 23.4294 0 19.7625 0 15.4569H3.06696C3.06696 19.0449 4.53229 22.1019 7.46295 24.6278C10.3936 27.1537 13.9888 28.4167 18.2484 28.4167C22.5763 28.4167 26.2396 27.1394 29.2384 24.5847C32.2372 22.0301 33.7366 18.9301 33.7366 15.2847C33.7366 11.7255 32.2202 8.71875 29.1873 6.26458C26.1544 3.81042 22.5081 2.58333 18.2484 2.58333C15.9312 2.58333 13.7587 3.02824 11.7311 3.91806C9.70353 4.80787 7.94003 5.98472 6.44062 7.44861H11.8078V10.0319H1.12455V1.07639H4.19152V5.64028C5.96354 3.88935 8.06782 2.51157 10.5044 1.50694C12.9409 0.502315 15.5222 0 18.2484 0C20.8042 0 23.2067 0.401852 25.4558 1.20556C27.7049 2.00926 29.6729 3.10718 31.3597 4.49931C33.0465 5.89144 34.3756 7.52037 35.3468 9.38611C36.318 11.2519 36.8036 13.2611 36.8036 15.4139C36.8036 17.5667 36.318 19.5903 35.3468 21.4847C34.3756 23.3792 33.0465 25.0296 31.3597 26.4361C29.6729 27.8426 27.7049 28.9549 25.4558 29.7729C23.2067 30.591 20.8042 31 18.2484 31ZM24.7913 22.5181L16.9194 15.9736V6.75972H19.9864V14.8972L26.9893 20.6667L24.7913 22.5181Z" fill="#FF0000"/>
</svg>
