<svg id="logo_apple" data-name="logo apple" xmlns="http://www.w3.org/2000/svg" width="36.644" height="43.345" viewBox="0 0 36.644 43.345">
  <path id="Tracé_14" data-name="Tracé 14" d="M37.752,12.789c-7.192,4.362-5.874,14.191,1.26,17.37a22.868,22.868,0,0,1-6.785,10.314c-2,1.667-4.265,1.338-6.475.426a9.585,9.585,0,0,0-5.583-.814,20.171,20.171,0,0,0-3.451,1.047,5.672,5.672,0,0,1-6.8-1.473C4.5,33.8,1.6,27.018,2.546,18.915a11.3,11.3,0,0,1,10.275-10.2,7.34,7.34,0,0,1,3.761.582,10.349,10.349,0,0,0,8.7,0,10.586,10.586,0,0,1,12.291,3.179C37.635,12.575,37.694,12.692,37.752,12.789Z" transform="translate(-2.368 1.674)"/>
  <path id="Tracé_15" data-name="Tracé 15" d="M20.824,3.26C21.289,8.436,16.617,13.709,12,13.3,10.937,8.94,15.706,3.473,20.824,3.26Z" transform="translate(6.534 -3.26)"/>
</svg>
