<svg class="svg-icon" style="width: 1em; height: 1em;vertical-align: middle;fill: currentColor;overflow: hidden;" viewBox="0 0 1024 1024" version="1.1" xmlns="http://www.w3.org/2000/svg"><path d="M512 580.266667c-40.96 0-238.933333-3.413333-238.933333-61.44l13.653333-221.866667c3.413333-34.133333 30.72-58.026667 61.44-58.026667h327.68c30.72 0 58.026667 23.893333 61.44 58.026667l13.653333 221.866667c0 58.026667-197.973333 61.44-238.933333 61.44z m-204.8-64.853334c13.653333 10.24 81.92 30.72 204.8 30.72s191.146667-20.48 204.8-30.72l-13.653333-218.453333c0-13.653333-13.653333-23.893333-27.306667-23.893333h-327.68c-13.653333 0-27.306667 10.24-27.306667 23.893333L307.2 515.413333zM597.333333 716.8h-170.666666c-10.24 0-17.066667-6.826667-17.066667-17.066667s6.826667-17.066667 17.066667-17.066666h170.666666c10.24 0 17.066667 6.826667 17.066667 17.066666s-6.826667 17.066667-17.066667 17.066667z" fill="" /><path d="M512 887.466667c-160.426667 0-341.333333-44.373333-341.333333-102.4L208.213333 232.106667C211.626667 177.493333 256 136.533333 310.613333 136.533333h399.36c54.613333 0 98.986667 40.96 102.4 95.573334L853.333333 785.066667c0 58.026667-180.906667 102.4-341.333333 102.4zM310.613333 170.666667c-37.546667 0-68.266667 27.306667-68.266666 61.44L204.8 788.48c6.826667 17.066667 129.706667 64.853333 307.2 64.853333s300.373333-47.786667 307.2-68.266666L781.653333 232.106667c-3.413333-34.133333-34.133333-61.44-68.266666-61.44H310.613333z" fill="" /><path d="M153.6 1024c-3.413333 0-6.826667 0-10.24-3.413333-6.826667-6.826667-10.24-17.066667-3.413333-23.893334l119.466666-153.6c6.826667-6.826667 17.066667-10.24 23.893334-3.413333 6.826667 6.826667 10.24 17.066667 3.413333 23.893333l-119.466667 153.6c-3.413333 3.413333-10.24 6.826667-13.653333 6.826667zM870.4 1024c-3.413333 0-10.24-3.413333-13.653333-6.826667l-119.466667-153.6c-6.826667-6.826667-3.413333-17.066667 3.413333-23.893333 6.826667-6.826667 17.066667-3.413333 23.893334 3.413333l119.466666 153.6c6.826667 6.826667 3.413333 17.066667-3.413333 23.893334-3.413333 3.413333-6.826667 3.413333-10.24 3.413333zM512 273.066667c-37.546667 0-68.266667-30.72-68.266667-68.266667s30.72-68.266667 68.266667-68.266667 68.266667 30.72 68.266667 68.266667-30.72 68.266667-68.266667 68.266667z m0-102.4c-20.48 0-34.133333 13.653333-34.133333 34.133333s13.653333 34.133333 34.133333 34.133333 34.133333-13.653333 34.133333-34.133333-13.653333-34.133333-34.133333-34.133333zM324.266667 750.933333c-27.306667 0-51.2-23.893333-51.2-51.2S296.96 648.533333 324.266667 648.533333s51.2 23.893333 51.2 51.2-23.893333 51.2-51.2 51.2z m0-68.266666c-10.24 0-17.066667 6.826667-17.066667 17.066666s6.826667 17.066667 17.066667 17.066667 17.066667-6.826667 17.066666-17.066667-6.826667-17.066667-17.066666-17.066666zM699.733333 750.933333c-27.306667 0-51.2-23.893333-51.2-51.2s23.893333-51.2 51.2-51.2 51.2 23.893333 51.2 51.2-23.893333 51.2-51.2 51.2z m0-68.266666c-10.24 0-17.066667 6.826667-17.066666 17.066666s6.826667 17.066667 17.066666 17.066667 17.066667-6.826667 17.066667-17.066667-6.826667-17.066667-17.066667-17.066666z" fill="" /><path d="M785.066667 921.6H238.933333c-10.24 0-17.066667-6.826667-17.066666-17.066667s6.826667-17.066667 17.066666-17.066666h546.133334c10.24 0 17.066667 6.826667 17.066666 17.066666s-6.826667 17.066667-17.066666 17.066667zM836.266667 989.866667h-648.533334c-10.24 0-17.066667-6.826667-17.066666-17.066667s6.826667-17.066667 17.066666-17.066667h648.533334c10.24 0 17.066667 6.826667 17.066666 17.066667s-6.826667 17.066667-17.066666 17.066667z" fill="" /><path d="M972.8 1024c-10.24 0-17.066667-6.826667-17.066667-17.066667v-614.4C955.733333 194.56 795.306667 34.133333 597.333333 34.133333h-170.666666C228.693333 34.133333 68.266667 194.56 68.266667 392.533333v614.4c0 10.24-6.826667 17.066667-17.066667 17.066667s-17.066667-6.826667-17.066667-17.066667v-614.4C34.133333 177.493333 211.626667 0 426.666667 0h170.666666C812.373333 0 989.866667 177.493333 989.866667 392.533333v614.4c0 10.24-6.826667 17.066667-17.066667 17.066667z" fill="" /></svg>