<svg class="svg-icon" style="width: 1em; height: 1em;vertical-align: middle;fill: currentColor;overflow: hidden;" viewBox="0 0 1024 1024" version="1.1" xmlns="http://www.w3.org/2000/svg"><path d="M821.718971 65.09967 209.132064 65.09967c-48.254004 0-90.907453 41.21468-90.907453 89.468684L118.224612 712.459544c0 48.254004 42.654472 85.327364 90.907453 85.327364l39.283702 0-85.160565 126.389572c-6.788613 9.988492-4.192485 24.143886 5.801123 30.93864 3.765767 2.553149 8.04421 4.054339 12.274558 4.054339 7.002484 0 13.882172-4.310166 18.117636-10.538007l101.875249-150.844543 428.879907 0L836.231499 949.08887c4.26207 6.03546 11.024078 9.80839 17.893532 9.80839 4.358261 0 8.759501-1.030469 12.594853-3.733021 9.870812-6.964622 12.226462-21.573341 5.255701-31.444153l-88.217181-125.932154 37.960567 0c48.254004 0 84.451414-37.074384 84.451414-85.327364L906.170384 154.568355C906.170384 106.314351 869.972974 65.09967 821.718971 65.09967zM862.168218 711.052498c0 24.165376-19.590174 43.756573-43.756573 43.756573L205.983351 754.809071c-24.165376 0-43.756573-19.590174-43.756573-43.756573L162.226778 152.85841c0-24.165376 19.590174-43.756573 43.756573-43.756573l612.429317 0c24.165376 0 43.756573 19.590174 43.756573 43.756573L862.169241 711.052498z"  /><path d="M806.909683 228.971925c0-36.248575-29.385261-65.633836-65.633836-65.633836L282.096866 163.338089c-36.248575 0-65.633836 29.385261-65.633836 65.633836l0 197.212594c0 36.248575 29.385261 65.633836 65.633836 65.633836l459.178981 0c36.248575 0 65.633836-29.385261 65.633836-65.633836L806.909683 228.971925zM763.930823 425.938925c0 12.0832-9.795087 21.878287-21.878287 21.878287l-459.710077 0c-12.0832 0-21.878287-9.795087-21.878287-21.878287l0-196.720384c0-12.0832 9.795087-21.878287 21.878287-21.878287l459.710077 0c12.0832 0 21.878287 9.795087 21.878287 21.878287L763.930823 425.938925z"  /><path d="M274.334066 560.167023c-33.174564 0-60.164265 26.994818-60.164265 60.164265s26.989701 60.164265 60.164265 60.164265 60.164265-26.994818 60.164265-60.164265S307.508629 560.167023 274.334066 560.167023zM274.334066 647.680169c-15.078417 0-27.347858-12.263301-27.347858-27.347858s12.269441-27.347858 27.347858-27.347858c15.078417 0 27.347858 12.263301 27.347858 27.347858S289.412482 647.680169 274.334066 647.680169z"  /><path d="M744.713132 560.167023c-33.174564 0-60.164265 26.994818-60.164265 60.164265s26.989701 60.164265 60.164265 60.164265 60.164265-26.994818 60.164265-60.164265S777.887696 560.167023 744.713132 560.167023zM744.713132 647.680169c-15.078417 0-27.347858-12.263301-27.347858-27.347858s12.269441-27.347858 27.347858-27.347858c15.078417 0 27.347858 12.263301 27.347858 27.347858S759.791549 647.680169 744.713132 647.680169z"  /></svg>